<?xml version="1.0" ?><!DOCTYPE svg  PUBLIC '-//W3C//DTD SVG 1.0//EN'  'http://www.w3.org/TR/2001/REC-SVG-20010904/DTD/svg10.dtd'><svg enable-background="new 0 0 512 512" height="512px" version="1.0" viewBox="0 0 512 512" width="512px" xml:space="preserve" xmlns="http://www.w3.org/2000/svg" xmlns:xlink="http://www.w3.org/1999/xlink"><g><g id="Emo_Girl"><g id="neck_x26_cloth_29_"/><g id="face_29_"/><g id="hair_16_"/></g><g id="Smart_Girl"><g id="neck_x26_cloth_27_"/><g id="face_27_"/><g id="earings_3_"/><g id="glasses_13_"/><g id="hair_14_"/></g><g id="Fashion_Girl"><g id="neck_x26_cloth_26_"/><g id="face_26_"><g id="New_Symbol_1_1_"/><g id="New_Symbol_1"/></g><g id="earings_4_"/><g id="glasses_12_"/><g id="hair_13_"/></g><g id="Sporty_Girl"><g id="neck_x26_cloth_28_"/><g id="face_28_"/><g id="hair_15_"/><g id="headband_1_"/></g><g id="Long_Hair_Girl"><g id="neck_x26_cloth_25_"/><g id="face_25_"/><g id="hair_12_"/></g><g id="Short_Hair_Girl"><g id="neck_x26_cloth_24_"/><g id="face_24_"/><g id="glasses_11_"/><g id="hair_11_"/></g><g id="Benie_Girl"><g id="neck_x26_cloth_23_"/><g id="face_23_"/><g id="glasses_10_"/><g id="hair_x26_beanie"/></g><g id="Ginger_Girl"><g id="neck_x26_cloth_22_"/><g id="face_22_"/><g id="earings_2_"/><g id="glasses_9_"/><g id="hair_10_"/></g><g id="Pixie_Girl"><g id="neck_x26_cloth_21_"/><g id="face_21_"/><g id="earings_1_"/><g id="hair_9_"/></g><g id="Work_Girl"><g id="neck_x26_cloth_20_"/><g id="face_20_"/><g id="earings"/><g id="hair_8_"/></g><g id="Nice_Guy"><g id="neck_x26_cloth_19_"/><g id="face_19_"/><g id="hair_x26_beard_8_"/><g id="glasses_8_"/></g><g id="Hoody_Guy"><g id="neck_x26_cloth_18_"/><g id="face_18_"/><g id="hoody"/></g><g id="Rocker"><g id="neck_x26_cloth_17_"/><g id="face_17_"/><g id="hair_x26_beard_7_"/></g><g id="Afro_Guy"><g id="neck_x26_cloth_16_"/><g id="face_16_"/><g id="hair_x26_beard_9_"/><g id="glasses_7_"/></g><g id="Singer"><g id="neck_x26_cloth_15_"/><g id="face_15_"/><g id="hair_7_"/></g><g id="Smart_Guy"><g id="neck_x26_cloth_14_"/><g id="face_14_"/><g id="hair_x26_beard_6_"/><g id="glasses_6_"/></g><g id="Ginger_Guy"><g id="neck_x26_cloth_13_"/><g id="face_13_"/><g id="glasses_5_"/><g id="hair_6_"/></g><g id="Sport_Guy"><g id="neck_x26_cloth_12_"/><g id="face_12_"/><g id="hair_5_"/></g><g id="Jamaica_Guy"><g id="neck_x26_cloth_11_"/><g id="face_11_"/><g id="cap_1_"/><g id="glasses_4_"/></g><g id="Basketball_Guy"><g id="neck_x26_cloth_10_"/><g id="face_10_"/><g id="hair_x26_beard_5_"/><g id="headband"/></g><g id="Bussiness_Man"><g id="neck_x26_cloth_9_"/><g id="face_9_"/><g id="hair_4_"/><g id="glasses_3_"/></g><g id="Old_Wise_Man"><g id="neck_x26_cloth_8_"/><g id="face_8_"/><g id="hair_x26_beard_4_"/><g id="glasses_2_"/></g><g id="latin_Guy"><g id="neck_x26_cloth_7_"/><g id="face_7_"/><g id="hair_x26_beard_3_"/></g><g id="Hiphop_Guy"><g id="neck_x26_cloth_6_"><path d="M359.484,359.56l-25.001-45.052c0,0-69.762-14.962-78.483,30.746      c-8.722-45.708-78.483-30.746-78.483-30.746l-25.001,45.052l64.5,94.609c0,0,33.294-52.292,38.984-90.042      c5.69,37.75,38.984,90.042,38.984,90.042L359.484,359.56z" fill="#216E9B"/><path d="M342.438,358.775c-67.383-29.841-42.976-104.818-42.976-104.818l-44.566,0.371l-44.565-0.371      c0,0,24.406,74.978-42.978,104.818v11.191L255.172,474l87.266-104.033V358.775z" fill="#855A49"/><path d="M321.774,343.148c0,0-24.785,48.005-66.879,48.995c-42.094-0.99-66.879-48.995-66.879-48.995      l-23.44,16.411l39.138,59.19L255.109,474l50.968-55.25l39.137-59.19L321.774,343.148z" fill="#BAB9B2"/><path d="M321.774,343.148c0,0-24.785,48.005-66.879,48.995c-42.094-0.99-66.879-48.995-66.879-48.995      l-9.882,6.85c4.883,12.254,27.381,62.104,75.381,63.465v0.037c1,0,0.666-0.014,1-0.019c0.334,0.005,1,0.019,1,0.019v-0.037      c48-1.365,70.969-51.502,75.795-63.568L321.774,343.148z" fill="#ECF0F1"/><g><linearGradient gradientUnits="userSpaceOnUse" id="SVGID_1_" x1="224.7588" x2="251.4257" y1="363.4609" y2="298.127"><stop offset="0" style="stop-color:#855A49"/><stop offset="1" style="stop-color:#5E4034"/></linearGradient><path d="M298.014,308.273c-0.237-0.917-0.457-1.833-0.66-2.746c-0.006-0.027-0.013-0.055-0.018-0.082       c-0.405-1.823-0.745-3.636-1.026-5.433c-0.004-0.027-0.009-0.056-0.013-0.084c-0.279-1.797-0.502-3.577-0.672-5.334       c-0.003-0.025-0.006-0.051-0.008-0.076c-0.17-1.763-0.289-3.5-0.362-5.207c-0.001-0.016-0.12-0.031-0.12-0.047       c-0.038-0.855-0.196-1.702-0.196-2.541c0,0,0-0.003,0-0.004l-42.124-32.409l-19.432-0.162l-10.699-0.089l-10.227,8.646       c0.023,0.122,0.055,0.246,0.078,0.37c1.118,5.742,2.217,12.555,2.086,20.101c0.24,16.507-3.211,37.199-17.845,54.333       c8.624,21.047,28.845,40.996,46.796,43.039C274.826,384.105,291.37,334.987,298.014,308.273z" fill="url(#SVGID_1_)"/></g><path d="M398.783,374.834c0.666-28-31.238-21.667-31.238-21.667c10-27-33.621-38.659-33.621-38.659      s-54.498,109.326-78.203,109.326s-78.216-109.326-78.216-109.326s-43.662,11.659-33.662,38.659c0,0-32.036-6.333-31.368,21.667      c0.65,27.279,143.041,105.333,143.041,105.333C262.516,475.67,398.133,402.113,398.783,374.834z" fill="#2981B5"/><path d="M224.516,436c0,1.933-1.567,3.5-3.5,3.5h-9c-1.933,0-3.5-1.567-3.5-3.5l0,0c0-1.933,1.567-3.5,3.5-3.5h9      C222.948,432.5,224.516,434.067,224.516,436L224.516,436z" fill="#216E9B"/><g><rect fill="#BAB9B2" height="77" width="9" x="211.516" y="435.5"/></g><path d="M303.516,436c0,1.933-1.567,3.5-3.5,3.5h-9c-1.933,0-3.5-1.567-3.5-3.5l0,0c0-1.933,1.567-3.5,3.5-3.5h9      C301.948,432.5,303.516,434.067,303.516,436L303.516,436z" fill="#216E9B"/><g><rect fill="#BAB9B2" height="77" width="9" x="290.516" y="435.5"/></g></g><g id="face_6_"><g><linearGradient gradientUnits="userSpaceOnUse" id="SVGID_2_" x1="161.3584" x2="192.6924" y1="196.8447" y2="224.1777"><stop offset="0" style="stop-color:#855A49"/><stop offset="1" style="stop-color:#5E4034"/></linearGradient><path d="M171.649,177.506c0,0-11.617-11.879-20.82,0.004s7.573,63.774,29.005,52.675       C201.265,219.084,171.649,177.506,171.649,177.506z" fill="url(#SVGID_2_)"/><linearGradient gradientUnits="userSpaceOnUse" id="SVGID_3_" x1="356.667" x2="323.3339" y1="186.9063" y2="229.5734"><stop offset="0" style="stop-color:#855A49"/><stop offset="1" style="stop-color:#5E4034"/></linearGradient><path d="M340.352,177.506c0,0,11.617-11.879,20.82,0.004c9.202,11.883-7.573,63.774-29.005,52.675       C310.735,219.084,340.352,177.506,340.352,177.506z" fill="url(#SVGID_3_)"/></g><path d="M255.644,72.674c33.639,0,86.024,12.003,87.543,87.533c0,0-8.474,82.531-14.498,97.967      c-5.104,13.075-16.896,37.158-40.094,50.138c-5.335,2.985-32.951,4.452-32.951,4.452s-26.995-1.467-32.329-4.452      c-23.197-12.979-35.474-37.063-40.577-50.138c-6.025-15.436-14.544-97.967-14.544-97.967      C169.712,84.677,222.005,72.674,255.644,72.674z" fill="#855A49"/><path d="M240.516,192.5c0,0-38.742-26.664-48.158-7.5l-1.904-7.5c0,0,4.281-9.5,16.281-11.5s33.781,15,33.781,15      V192.5z" fill="#2B2B2B"/><path d="M270.516,192.5c0,0,38.916-26.664,48.332-7.5l1.991-7.5c0,0-4.411-9.5-16.411-11.5s-33.912,15-33.912,15      V192.5z" fill="#2B2B2B"/></g><g id="hair_x26_beard_2_"><path d="M255.644,312.764c0,0,1.663-0.024,4.288-0.095c-0.728-7.364-2.126-17.169-4.416-17.169      c-2.289,0-3.688,9.797-4.415,17.159C253.867,312.737,255.644,312.764,255.644,312.764z" fill="#2B2B2B"/><path d="M255.644,63.5c-33.639,0-85.932,21.177-87.45,96.707c0,0,1.979,19.179,4.705,40.774l0.211,1.173      l6.104-5.529l-2.108-30.843c0,0-13.791-43.282,22.876-55.948c36.169-12.495,31.67,15.875,55.535,16.647v0.019      c0.17,0,0.333-0.006,0.5-0.01c0.167,0.004,0.33,0.01,0.5,0.01v-0.019c23.865-0.772,19.341-29.143,55.51-16.647      c36.667,12.666,22.85,55.948,22.85,55.948l-2.104,30.843l5.638,5.102c2.764-21.897,4.778-41.52,4.778-41.52      C341.668,84.677,289.282,63.5,255.644,63.5z" fill="#2B2B2B"/></g><g id="cap"><path d="M348.516,112.5c0,22,0,17,0,17h-186c0,0,0,5,0-17v-41c0-22,28.174-50,50.174-50h86      c22,0,49.826,28,49.826,50V112.5z" fill="#2981B5"/><linearGradient gradientUnits="userSpaceOnUse" id="SVGID_4_" x1="280.6826" x2="184.6826" y1="64.0977" y2="78.7647"><stop offset="0" style="stop-color:#2981B5"/><stop offset="1" style="stop-color:#1D5D82"/></linearGradient><path d="M201.516,99.048c0-19.161,24.538-43.548,43.699-43.548h74.902      c9.371,0,19.952,5.841,28.322,14.044c-1.56-21.667-28.396-48.044-49.75-48.044h-86c-22,0-50.174,28-50.174,50v41      c0,11.688,0,15.755,0,17h39V99.048z" fill="url(#SVGID_4_)"/><path d="M347.663,129.5H162.412c0,0-21.346,16.053-4.043,26.678s97.146,13.322,97.146,13.322      s78.865-2.697,96.168-13.322S347.663,129.5,347.663,129.5z" fill="#3097D4"/><path d="M351.684,151.178c-17.303,10.625-96.168,13.322-96.168,13.322s-79.844-2.697-97.146-13.322      c-3.813-2.341-5.745-4.945-6.446-7.584c-0.991,4.23,0.216,8.758,6.446,12.584c17.303,10.625,97.146,13.322,97.146,13.322      s78.865-2.697,96.168-13.322c6.234-3.828,7.441-8.359,6.451-12.593C357.434,146.227,355.5,148.834,351.684,151.178z" fill="#34A3E6"/><path d="M261.564,119.099c-0.962,0-1.931-0.346-2.879-1.029l-0.079-0.057l-1.982-1.743l-1.354,1.285      c-0.809,0.927-1.9,1.415-3.166,1.415c-1.67,0-2.646-0.73-3.197-1.436c-0.843-0.79-1.304-1.863-1.304-3.055      c0-1.227,0.477-2.352,1.377-3.252l3.448-3.567c0.063-0.106,0.087-0.201,0.087-0.285v-22.05l-26.008-27.692l-4.626-1.172      c-1.205-0.292-2.135-0.974-2.724-1.968c-0.576-1.028-0.694-2.138-0.402-3.34c0.288-1.176,0.943-2.128,1.881-2.76      c0.702-0.464,1.473-0.693,2.297-0.693c0.371,0,0.756,0.048,1.141,0.143l2.526,0.616l0.593-1.853      c0.432-1.599,1.441-2.353,2.217-2.704c0.579-0.274,1.236-0.42,1.924-0.42c0.413,0,0.842,0.054,1.275,0.159      c1.279,0.328,2.24,1.063,2.805,2.13c0.531,0.971,0.667,2.124,0.379,3.309l-0.028,0.106l-1.28,4.246l22.526,23.922l19.68-23.441      l-1.416-4.73c-0.321-1.24-0.196-2.393,0.34-3.409c0.59-1.08,1.549-1.807,2.787-2.125c0.376-0.106,0.802-0.166,1.225-0.166      c0.643,0,1.284,0.137,1.905,0.405c1.153,0.485,1.975,1.454,2.307,2.727l0.596,1.845l2.521-0.616      c0.392-0.095,0.775-0.143,1.145-0.143c0.833,0,1.602,0.233,2.286,0.692c0.929,0.613,1.565,1.533,1.877,2.726      c0.39,1.607-0.075,2.764-0.533,3.456c-0.644,0.954-1.595,1.602-2.763,1.889l-4.31,1.137l-23.141,27.917v23.225l2.873,2.56      c0.875,0.73,1.469,1.81,1.545,3.057c0.078,1.26-0.283,2.361-1.097,3.188C263.7,118.827,262.445,119.099,261.564,119.099z" fill="#2678A8"/><path d="M290.326,51.624c0.171,0.705,0.086,1.314-0.267,1.849c-0.354,0.523-0.877,0.877-1.571,1.048      l-4.863,1.314l-23.899,28.963v24.818l3.41,3.153c0.523,0.438,0.812,1.005,0.854,1.71c0.043,0.695-0.149,1.272-0.588,1.699      c-0.534,0.62-1.144,0.92-1.838,0.92c-0.535,0-1.102-0.214-1.711-0.652l-3.281-2.886l-2.757,2.618      c-0.438,0.535-1.016,0.791-1.711,0.791c-0.791,0-1.357-0.256-1.71-0.791c-0.523-0.427-0.791-1.004-0.791-1.699      c0-0.705,0.268-1.314,0.791-1.838l3.806-3.816c0-0.085,0.096-0.214,0.267-0.396l0.268-0.256V84.531l-27.063-28.696l-5.248-1.314      c-0.705-0.171-1.207-0.524-1.518-1.048c-0.299-0.534-0.363-1.144-0.192-1.849c0.171-0.695,0.524-1.219,1.048-1.571      c0.534-0.353,1.144-0.438,1.838-0.268l4.34,1.059l1.176-3.677c0.182-0.706,0.556-1.187,1.122-1.443      c0.566-0.268,1.197-0.31,1.902-0.139c0.706,0.182,1.208,0.556,1.508,1.122c0.31,0.566,0.374,1.197,0.203,1.902l-1.582,5.248      v0.139l24.829,26.367L278.9,54.392c-0.096-0.096-0.139-0.267-0.139-0.534l-1.571-5.248c-0.182-0.705-0.106-1.336,0.192-1.902      c0.31-0.566,0.813-0.94,1.518-1.122c0.609-0.171,1.219-0.129,1.839,0.139c0.609,0.257,1.005,0.737,1.176,1.443l1.187,3.677      l4.328-1.059c0.706-0.171,1.314-0.085,1.839,0.268C289.803,50.405,290.145,50.929,290.326,51.624z" fill="#F3F2E9"/><linearGradient gradientUnits="userSpaceOnUse" id="SVGID_5_" x1="171.3516" x2="204.6719" y1="142.8301" y2="142.8301"><stop offset="0" style="stop-color:#CAB78F"/><stop offset="0.9949" style="stop-color:#967B44"/></linearGradient><ellipse cx="188.012" cy="142.83" fill="url(#SVGID_5_)" rx="16.66" ry="10.004"/></g></g><g id="Mexican_Guy"><g id="neck_x26_cloth_5_"/><g id="face_5_"/><g id="hair_x26_beard_1_"/></g><g id="Blonde_Guy"><g id="neck_x26_cloth_4_"/><g id="face_4_"/><g id="hair_3_"/></g><g id="Nerd_Guy"><g id="neck_x26_cloth_3_"/><g id="face_3_"/><g id="hair_2_"/><g id="glasses_1_"/></g><g id="Handsome_Guy"><g id="neck_x26_cloth_2_"/><g id="face_2_"/><g id="hair_1_"/></g><g id="Skater"><g id="neck_x26_cloth_1_"/><g id="face_1_"/><g id="hair_x26_beard_10_"/><g id="beanie"/></g><g id="Hipster"><g id="neck_x26_cloth"/><g id="face"/><g id="hair_x26_beard"/><g id="glasses"/></g></g></svg>